name C:\Users\u0088756\Documents\FWO\Software\ExoSim\SimExo_3D\3dpredictsim\Results\BatchSim_2020_03_17_UpdIG\NoExo.mot
datacolumns 126
datarows 4
range 1.65024541 1.68325031
endheader
time	pelvis_tilt	pelvis_list	pelvis_rotation	pelvis_tx	pelvis_ty	pelvis_tz	hip_flexion_l	hip_adduction_l	hip_rotation_l	hip_flexion_r	hip_adduction_r	hip_rotation_r	knee_angle_l	knee_angle_r	ankle_angle_l	ankle_angle_r	subtalar_angle_l	subtalar_angle_r	mtp_angle_l	mtp_angle_r	lumbar_extension	lumbar_bending	lumbar_rotation	arm_flex_l	arm_add_l	arm_rot_l	arm_flex_r	arm_add_r	arm_rot_r	elbow_flex_l	elbow_flex_r	pro_sup_l	pro_sup_r	glut_med1_l/activation	glut_med2_l/activation	glut_med3_l/activation	glut_min1_l/activation	glut_min2_l/activation	glut_min3_l/activation	semimem_l/activation	semiten_l/activation	bifemlh_l/activation	bifemsh_l/activation	sar_l/activation	add_long_l/activation	add_brev_l/activation	add_mag1_l/activation	add_mag2_l/activation	add_mag3_l/activation	tfl_l/activation	pect_l/activation	grac_l/activation	glut_max1_l/activation	glut_max2_l/activation	glut_max3_l/activation	iliacus_l/activation	psoas_l/activation	quad_fem_l/activation	gem_l/activation	peri_l/activation	rect_fem_l/activation	vas_med_l/activation	vas_int_l/activation	vas_lat_l/activation	med_gas_l/activation	lat_gas_l/activation	soleus_l/activation	tib_post_l/activation	flex_dig_l/activation	flex_hal_l/activation	tib_ant_l/activation	per_brev_l/activation	per_long_l/activation	per_tert_l/activation	ext_dig_l/activation	ext_hal_l/activation	ercspn_l/activation	intobl_l/activation	extobl_l/activation	glut_med1_r/activation	glut_med2_r/activation	glut_med3_r/activation	glut_min1_r/activation	glut_min2_r/activation	glut_min3_r/activation	semimem_r/activation	semiten_r/activation	bifemlh_r/activation	bifemsh_r/activation	sar_r/activation	add_long_r/activation	add_brev_r/activation	add_mag1_r/activation	add_mag2_r/activation	add_mag3_r/activation	tfl_r/activation	pect_r/activation	grac_r/activation	glut_max1_r/activation	glut_max2_r/activation	glut_max3_r/activation	iliacus_r/activation	psoas_r/activation	quad_fem_r/activation	gem_r/activation	peri_r/activation	rect_fem_r/activation	vas_med_r/activation	vas_int_r/activation	vas_lat_r/activation	med_gas_r/activation	lat_gas_r/activation	soleus_r/activation	tib_post_r/activation	flex_dig_r/activation	flex_hal_r/activation	tib_ant_r/activation	per_brev_r/activation	per_long_r/activation	per_tert_r/activation	ext_dig_r/activation	ext_hal_r/activation	ercspn_r/activation	intobl_r/activation	extobl_r/activation	
          1.65024541	         -2.93009474	          2.66505013	         -5.97643605	          2.06280676	          0.85698564	          0.00257385	         31.43539750	          3.30258686	         -1.42033603	        -16.73712672	         -2.30933301	          6.87550054	        -12.43107922	         -8.47048779	          6.78965780	          3.66823756	         -4.31995217	         11.74301936	         -0.12169679	         20.74492777	         -1.63383480	         -0.68257157	          2.13992253	        -10.70493816	        -13.65419818	          8.96496796	          9.02651579	        -13.44993928	         16.78949782	         13.20634303	         37.79566492	         86.51662706	         86.51662706	          0.13071565	          0.05000023	          0.05916809	          0.05000011	          0.05000015	          0.05000040	          0.21654647	          0.06920480	          0.05916898	          0.05000021	          0.05000069	          0.05680953	          0.13345289	          0.21420804	          0.15815422	          0.10413810	          0.05916818	          0.05000639	          0.08645225	          0.07001672	          0.07001763	          0.11027914	          0.05000010	          0.05000018	          0.30083961	          0.05005385	          0.05000164	          0.05000028	          0.08278271	          0.08411494	          0.07220060	          0.05859536	          0.05000156	          0.05728280	          0.05000010	          0.05000077	          0.05837855	          0.43110140	          0.37929339	          0.22184628	          0.12429063	          0.50015929	          0.22321686	          0.07300101	          0.12321538	          0.13728562	          0.28779838	          0.12659584	          0.08926139	          0.32063784	          0.22750601	          0.13481317	          0.05000170	          0.05000024	          0.05000019	          0.06643491	          0.11954252	          0.05000011	          0.05000020	          0.05000026	          0.05000067	          0.05000059	          0.37469888	          0.05000057	          0.05000059	          0.05017084	          0.05002847	          0.05000216	          0.43082999	          0.63640843	          0.05000064	          0.05000590	          0.07001754	          0.28204631	          0.06733599	          0.08111661	          0.07847022	          0.39618298	          0.49482103	          0.34677328	          0.30909010	          0.36284057	          0.45315464	          0.05000002	          0.07532138	          0.24177522	          0.05000013	          0.05000004	          0.05000014	          0.05000001	          0.05000003	          0.05000004	
          1.66124704	         -2.92819541	          2.75067869	         -6.29627459	          2.07929037	          0.85595188	          0.00238748	         30.80154100	          3.61373672	         -1.21152096	        -16.77748422	         -2.61327664	          6.66214538	        -12.19116609	        -10.10124914	          6.15172960	          2.55271586	         -4.75909869	         12.37842153	         -0.10119953	         22.01883712	         -1.43276417	         -0.88328342	          2.21182942	        -11.83226637	        -13.63285604	          9.03990165	          8.92995980	        -13.45400162	         17.06365319	         13.10635101	         38.95182295	         86.51662706	         86.51662706	          0.11046149	          0.05916803	          0.05000016	          0.07370181	          0.05916833	          0.05099250	          0.18936048	          0.05848181	          0.05000089	          0.05014612	          0.05000107	          0.08003647	          0.11277510	          0.18101808	          0.16366358	          0.10938358	          0.05000034	          0.05000381	          0.07305749	          0.05916792	          0.05916854	          0.10756684	          0.05000143	          0.05000100	          0.47884938	          0.16150191	          0.13301000	          0.07001750	          0.18909062	          0.19223106	          0.16490654	          0.05000000	          0.05000002	          0.05000000	          0.05000005	          0.05916817	          0.05000030	          0.50402021	          0.32053482	          0.23431083	          0.42053536	          0.56350266	          0.23074338	          0.06168983	          0.10412330	          0.11601335	          0.24320454	          0.10697998	          0.07543049	          0.27095552	          0.19225427	          0.11392409	          0.05000247	          0.05000040	          0.05000041	          0.05614098	          0.10101998	          0.06560510	          0.05000130	          0.05000145	          0.05000215	          0.05000135	          0.31663989	          0.05213201	          0.05000269	          0.05000381	          0.05000250	          0.05000221	          0.36407341	          0.58885165	          0.05000183	          0.05035587	          0.05916870	          0.23834354	          0.05690348	          0.18137858	          0.14564628	          0.33479502	          0.42342611	          0.29304120	          0.28433872	          0.30661979	          0.38294053	          0.05000002	          0.06640083	          0.24054723	          0.05000014	          0.05000003	          0.05000013	          0.05000001	          0.06666070	          0.05000002	
          1.67224868	         -2.92226132	          2.82485249	         -6.58933174	          2.09611039	          0.85496396	          0.00219951	         30.06264243	          3.89241967	         -0.95208509	        -16.75765643	         -2.90510988	          6.44355218	        -12.54645996	        -11.83514612	          5.37083349	          1.23474470	         -5.21197656	         12.97582942	         -0.13378603	         23.21610995	         -1.20816909	         -1.07969831	          2.27494845	        -12.97832996	        -13.60792075	          9.11451473	          8.74130493	        -13.46023597	         17.27441001	         13.06996728	         40.04533001	         86.51662706	         86.51662706	          0.24140185	          0.05000009	          0.29838114	          0.06228183	          0.05000033	          0.05000016	          0.17346280	          0.05000009	          0.06294247	          0.05000005	          0.05000061	          0.08285554	          0.20627116	          0.18460854	          0.13830489	          0.12272584	          0.05000060	          0.06073320	          0.06426854	          0.05000017	          0.05000053	          0.10665523	          0.05143011	          0.05000094	          0.40465225	          0.13647746	          0.18676756	          0.05916838	          0.15979140	          0.16244523	          0.13935459	          0.06257481	          0.06104647	          0.05917274	          0.05916812	          0.05000041	          0.07001658	          0.42592277	          0.34726704	          0.19800473	          0.35537388	          0.49998757	          0.19498994	          0.05213108	          0.10555179	          0.09803720	          0.24947214	          0.09040356	          0.06374265	          0.22897154	          0.16246475	          0.09627172	          0.05000181	          0.05000057	          0.05000059	          0.05000021	          0.08536757	          0.09471304	          0.05916823	          0.05916788	          0.05879279	          0.05916433	          0.26757711	          0.07923001	          0.05008660	          0.05000656	          0.05000448	          0.05000467	          0.30766081	          0.56754789	          0.05897675	          0.05000153	          0.05000065	          0.20141246	          0.12699873	          0.15327485	          0.12307915	          0.28291886	          0.35781671	          0.24763475	          0.24028084	          0.25910955	          0.32360445	          0.05000001	          0.05611248	          0.24529421	          0.05000009	          0.05000002	          0.05000010	          0.05000126	          0.05916789	          0.05222745	
          1.68325031	         -2.91406422	          2.89693436	         -6.84833296	          2.11311336	          0.85404644	          0.00199983	         29.20810168	          4.14494608	         -0.68304200	        -16.65275959	         -3.18824181	          6.22158248	        -12.99443094	        -13.69247623	          4.81315756	         -0.27619479	         -5.66255637	         13.51940816	         -0.15500622	         24.28189813	         -0.97479791	         -1.28208975	          2.32830694	        -14.10384867	        -13.58372582	          9.20723006	          8.48270204	        -13.46834039	         17.43344334	         13.07350362	         41.06246678	         86.51662706	         86.51662706	          0.29554161	          0.27899680	          0.36601750	          0.16585149	          0.19567015	          0.19379095	          0.14658494	          0.09241615	          0.05319160	          0.08511001	          0.05916780	          0.07001721	          0.17430967	          0.15600377	          0.11687487	          0.13648536	          0.05000044	          0.05132305	          0.07098543	          0.21509979	          0.16097385	          0.09012947	          0.05000015	          0.05000018	          0.34195190	          0.11533066	          0.15782858	          0.05000033	          0.13503194	          0.13727457	          0.11776178	          0.05287893	          0.05158742	          0.05000399	          0.05000009	          0.05916819	          0.05916786	          0.57169151	          0.43825960	          0.23216931	          0.60369127	          0.60406753	          0.32906560	          0.07062299	          0.09804769	          0.08284644	          0.29855585	          0.07639566	          0.05386588	          0.30167275	          0.13729111	          0.08135460	          0.05000278	          0.05000019	          0.05000018	          0.05000035	          0.07214074	          0.08003801	          0.05000053	          0.05000055	          0.05000068	          0.05000034	          0.24305917	          0.06695497	          0.05000070	          0.05000237	          0.05000138	          0.05000065	          0.25998933	          0.54218184	          0.05000018	          0.05000155	          0.05000459	          0.17020381	          0.10732185	          0.13041584	          0.14625906	          0.23908086	          0.30237338	          0.20926398	          0.20304960	          0.21896088	          0.27346234	          0.05000002	          0.09465897	          0.23471687	          0.05000012	          0.05000009	          0.05000015	          0.06188555	          0.05000001	          0.05000003	
